<svg width="17" height="23" viewBox="0 0 17 23" fill="none" xmlns="http://www.w3.org/2000/svg">
<path d="M14.0786 7.23113C14.0181 7.00434 13.8952 6.76268 13.8043 6.55111C12.7165 3.93689 10.3397 3 8.42053 3C5.85141 3 3.02182 4.72271 2.64404 8.27362V8.99909C2.64404 9.02937 2.65448 9.30134 2.6693 9.43738C2.88107 11.1297 4.2164 12.9282 5.21368 14.6205C6.28661 16.4336 7.39994 18.2171 8.50294 20C9.18308 18.8365 9.86076 17.6578 10.5254 16.5245C10.7065 16.1919 10.9168 15.8595 11.0982 15.542C11.219 15.3306 11.4499 15.1192 11.5554 14.9226C12.6283 12.9583 14.3552 10.9788 14.3552 9.02933V8.22849C14.3553 8.01715 14.0933 7.2767 14.0786 7.23113ZM8.46757 10.873C7.71238 10.873 6.88576 10.4954 6.47775 9.45252C6.41696 9.28651 6.42186 8.95384 6.42186 8.92336V8.45492C6.42186 7.12548 7.55068 6.52091 8.5327 6.52091C9.74168 6.52091 10.6767 7.48815 10.6767 8.69713C10.6767 9.90606 9.67654 10.873 8.46757 10.873Z" fill="white"/>
</svg>
